<svg width="798" height="414" viewBox="0 0 798 414" fill="none" xmlns="http://www.w3.org/2000/svg">
<path d="M767 219.063H749.8L708.2 145.383H719C725.458 145.977 731.964 144.966 737.937 142.44C743.911 139.914 749.168 135.95 753.24 130.903C756.396 125.801 758.39 120.067 759.081 114.108C759.773 108.149 759.144 102.111 757.24 96.4226C757.24 95.4626 729.16 0.902603 669.24 0.902603H12.76C9.57741 0.902603 6.52517 2.16688 4.27473 4.41731C2.02429 6.66775 0.76001 9.72001 0.76001 12.9026C0.76001 16.0852 2.02429 19.1375 4.27473 21.3879C6.52517 23.6383 9.57741 24.9026 12.76 24.9026H35.72V40.9026H12.76C9.57741 40.9026 6.52517 42.1669 4.27473 44.4173C2.02429 46.6677 0.76001 49.72 0.76001 52.9026V345.703C0.76001 348.885 2.02429 351.937 4.27473 354.188C6.52517 356.438 9.57741 357.703 12.76 357.703H74.68C76.3251 372.902 83.528 386.958 94.9053 397.17C106.282 407.382 121.032 413.031 136.32 413.031C151.608 413.031 166.358 407.382 177.735 397.17C189.112 386.958 196.315 372.902 197.96 357.703H608.92C610.565 372.902 617.768 386.958 629.145 397.17C640.522 407.382 655.272 413.031 670.56 413.031C685.848 413.031 700.598 407.382 711.975 397.17C723.352 386.958 730.555 372.902 732.2 357.703H785.24C788.423 357.703 791.475 356.438 793.725 354.188C795.976 351.937 797.24 348.885 797.24 345.703V249.143C797.251 245.176 796.475 241.247 794.957 237.582C793.439 233.917 791.209 230.59 788.397 227.792C785.585 224.995 782.246 222.783 778.573 221.284C774.9 219.786 770.967 219.031 767 219.063ZM708.28 351.063C708.28 358.578 706.051 365.925 701.876 372.174C697.7 378.423 691.766 383.294 684.822 386.17C677.878 389.046 670.238 389.799 662.867 388.332C655.495 386.866 648.724 383.247 643.41 377.933C638.096 372.618 634.476 365.847 633.01 358.476C631.544 351.105 632.296 343.464 635.173 336.521C638.049 329.577 642.919 323.642 649.168 319.467C655.417 315.291 662.764 313.063 670.28 313.063C675.287 313.042 680.25 314.008 684.883 315.908C689.517 317.807 693.73 320.601 697.282 324.131C700.834 327.661 703.655 331.856 705.583 336.478C707.512 341.099 708.51 346.055 708.52 351.063H708.28ZM680.68 145.383L722.2 219.063H620.52L614.12 145.383H680.68ZM773.24 249.383V333.543H729.96C726.207 320.683 718.385 309.388 707.667 301.352C696.95 293.315 683.916 288.971 670.52 288.971C657.124 288.971 644.09 293.315 633.373 301.352C622.655 309.388 614.833 320.683 611.08 333.543H578.52V145.383H590.04L597.56 232.183C597.802 235.175 599.164 237.965 601.373 239.997C603.583 242.029 606.478 243.152 609.48 243.143H767C767.805 243.121 768.606 243.26 769.357 243.551C770.108 243.842 770.794 244.28 771.375 244.838C771.955 245.396 772.419 246.064 772.739 246.803C773.059 247.542 773.23 248.337 773.24 249.143V249.383ZM155.24 41.3826V25.3826H226.76V41.3826H155.24ZM250.76 25.3826H322.28V41.3826H250.76V25.3826ZM346.28 25.3826H376.84L355 41.3826H346.28V25.3826ZM59.72 25.3826H131.24V41.3826H59.72V25.3826ZM174.36 351.063C174.36 358.578 172.131 365.925 167.956 372.174C163.78 378.423 157.846 383.294 150.902 386.17C143.958 389.046 136.318 389.799 128.947 388.332C121.575 386.866 114.804 383.247 109.49 377.933C104.176 372.618 100.556 365.847 99.0902 358.476C97.6239 351.105 98.3765 343.464 101.253 336.521C104.129 329.577 108.999 323.642 115.248 319.467C121.497 315.291 128.844 313.063 136.36 313.063C146.432 313.084 156.085 317.094 163.207 324.216C170.329 331.338 174.339 340.991 174.36 351.063ZM376.84 333.543V125.543H449.4V333.543H376.84ZM554.52 133.543V333.543H473.4V113.863C473.4 110.68 472.136 107.628 469.885 105.377C467.635 103.127 464.583 101.863 461.4 101.863H406.34H364.84C361.657 101.863 358.605 103.127 356.355 105.377C354.104 107.628 352.84 110.68 352.84 113.863V333.543H317V336.725C317 333.543 315.736 330.49 313.485 328.24C311.235 325.989 308.183 324.725 305 324.725H238.2C235.017 324.725 231.965 325.989 229.715 328.24C227.464 330.49 226.2 333.543 226.2 336.725V333.223H195.8C192.047 320.363 184.225 309.068 173.507 301.032C162.79 292.995 149.756 288.651 136.36 288.651C122.964 288.651 109.93 292.995 99.2126 301.032C88.4953 309.068 80.6732 320.363 76.92 333.223H24.76V64.7426H359C361.523 64.7494 363.985 63.9661 366.04 62.5026L417.88 24.9026H669.4C701.4 24.9026 726.76 77.5426 734.28 103.543C735.787 107.947 735.529 112.764 733.56 116.983C730.84 120.823 723.16 121.383 718.92 121.383H566.92C565.311 121.329 563.707 121.6 562.205 122.179C560.702 122.758 559.332 123.633 558.175 124.753C557.018 125.872 556.098 127.213 555.47 128.696C554.842 130.179 554.519 131.773 554.52 133.383V133.543Z" fill="white"/>
</svg>
